<svg class="svg-icon" style="width: 1em; height: 1em;vertical-align: middle;fill: currentColor;overflow: hidden;" viewBox="0 0 1024 1024" version="1.1" xmlns="http://www.w3.org/2000/svg"><path d="M512 64C264.64 64 64 264.64 64 512c0 247.424 200.64 448 448 448 247.424 0 448-200.576 448-448C960 264.64 759.424 64 512 64zM448 635.584c0 23.552-18.432 42.688-41.216 42.624-22.656 0.064-41.088-19.072-41.088-42.56L365.696 383.04c0-23.68 18.432-42.688 41.152-42.688C429.568 340.224 448 359.488 448 382.976L448 635.584zM658.24 635.584c0 23.552-18.432 42.688-41.216 42.624C594.368 678.272 576 659.136 576 635.648L576 383.04c0-23.68 18.432-42.688 41.152-42.688 22.656-0.128 41.152 19.136 41.152 42.624L658.304 635.584z"  /></svg>