<svg xmlns="http://www.w3.org/2000/svg" viewBox="0 0 896 896"><defs><style>.cls-1{fill:#fff;stroke:#000;stroke-miterlimit:10;}.cls-2{fill:#f50;}</style></defs><title>資產 1</title><g id="圖層_2" data-name="圖層 2"><g id="圖層_1-2" data-name="圖層 1"><rect class="cls-1" x="211" y="200.89" width="457" height="510"/><path class="cls-2" d="M448,0C200.64,0,0,200.64,0,448S200.64,896,448,896,896,695.42,896,448,695.42,0,448,0ZM384,571.58c0,23.55-18.43,42.69-41.22,42.62s-41.09-19.07-41.09-42.56V319c0-23.68,18.43-42.69,41.15-42.69S384,295.49,384,319Zm210.24,0c0,23.55-18.43,42.69-41.22,42.62s-41-19.07-41-42.56V319c0-23.68,18.43-42.69,41.15-42.69S594.3,295.49,594.3,319V571.58Z"/></g></g></svg>