<svg xmlns="http://www.w3.org/2000/svg" viewBox="0 0 122.95 115.09"><defs><style>.cls-1{fill:#fff;}</style></defs><title>資產 1</title><g id="圖層_2" data-name="圖層 2"><g id="圖層_1-2" data-name="圖層 1"><path class="cls-1" d="M123,41.26c-2.28,5.26-4.58,10.51-6.83,15.78s-4.64,5.87-8.81,1.75c-4.36-4.31-8.66-8.67-13-13-2.07-2-3-4.29-.63-6.55s4.42-1,6.25.91l.05.06A2.14,2.14,0,0,0,103.51,38,49.71,49.71,0,0,0,33.88,13.81C14.74,24.29,4.8,45.46,8.84,67.19c3.79,20.41,21.25,37,42.35,39.6A49,49,0,0,0,90.52,95c.81-.69,1.48-1.9,2.37-2.06,1.86-.35,4.32-.91,5.62,0,2.28,1.53,1.75,4.19-.32,5.77-4.73,3.62-9.35,7.63-14.63,10.25-5.53,2.74-11.73,4.11-17.66,6a2.07,2.07,0,0,1-.64.1H50.7a2.15,2.15,0,0,1-.58-.08c-.79-.22-1.58-.47-2.38-.64Q14.11,107.36,2.6,75C1.54,72,.89,68.85.07,65.75A2.08,2.08,0,0,1,0,65.22V49.83a2.12,2.12,0,0,1,.1-.66A21.63,21.63,0,0,0,.79,46.9C4.59,28.77,14.51,15,30.93,6.51c5.14-2.66,10.94-4,16.58-5.72L65.35,0C74.2,1.79,82.67,4.53,90.2,9.75a58.46,58.46,0,0,1,21.67,27.5,2.13,2.13,0,0,0,3.75.39C118,34,119.23,33.46,121.34,35Z"/></g></g></svg>