<svg xmlns="http://www.w3.org/2000/svg" viewBox="0 0 899.51 727.5"><defs><style>.cls-1{fill:#fff;}</style></defs><title>資產 1</title><g id="圖層_2" data-name="圖層 2"><g id="Layer_2" data-name="Layer 2"><path class="cls-1" d="M184.27,422.94c-1.61-16.85-16.22-29.28-32.48-27.61L135.43,397l34.32,313.65,12-1.24c16.25-1.67,28.23-16.82,26.62-33.68Z"/><path class="cls-1" d="M752.87,401.56c-16.24-1.78-30.94,10.54-32.66,27.38L694.42,681.58c-1.72,16.84,10.16,32.08,26.4,33.86l11.09,1.22,32.42-313.84Z"/><path class="cls-1" d="M887.54,447.31c1.72-16.84-10.16-32.08-26.4-33.86l-16.75-1.84c0-.34,0-.68,0-1C844.41,184.19,667.91,0,451,0,235.8,0,60.45,181.18,57.58,405l-14.13,1.45c-16.25,1.67-28.23,16.82-26.62,33.68,0,0-52.11,103.88,27.07,265.54l.9-.46a29.5,29.5,0,0,0,28.64,15.33l79.27-8.14L119.59,398.64C125.64,213.13,271.95,64.15,451,64.15c181,0,328.55,152.29,331.51,340.66l-30.84,314,77.47,8.51c16.24,1.78,30.94-10.54,32.66-27.38C927.35,571,887.54,447.31,887.54,447.31Z"/></g></g></svg>