<?xml version="1.0" encoding="utf-8"?>
<!-- Generator: Adobe Illustrator 23.0.6, SVG Export Plug-In . SVG Version: 6.00 Build 0)  -->
<svg version="1.1" id="圖層_1" xmlns="http://www.w3.org/2000/svg" xmlns:xlink="http://www.w3.org/1999/xlink" x="0px" y="0px"
	 viewBox="0 0 412.5 363.6" style="enable-background:new 0 0 412.5 363.6;" xml:space="preserve">
<style type="text/css">
	.st0{stroke:#FFFFFF;stroke-miterlimit:10;}
	.st1{fill:#FFFFFF;stroke:#FFFFFF;stroke-miterlimit:10;}
</style>
<g>
	<path class="st0" d="M373,363.1H39.5c-21.5,0-39-17.5-39-39V39.5c0-21.5,17.5-39,39-39H373c21.5,0,39,17.5,39,39v284.6
		C412,345.7,394.6,363.1,373,363.1z"/>
	<g>
		<circle class="st1" cx="92.6" cy="96.6" r="34.3"/>
		<path class="st1" d="M97.3,301.2h-9.4c-15.7,0-28.4-12.7-28.4-28.4v-91.3c0-15.7,12.7-28.4,28.4-28.4h9.4
			c15.7,0,28.4,12.7,28.4,28.4v91.3C125.8,288.5,113,301.2,97.3,301.2z"/>
	</g>
	<g>
		<circle class="st1" cx="205.9" cy="96.6" r="34.3"/>
		<path class="st1" d="M210.6,301.2h-9.4c-15.7,0-28.4-12.7-28.4-28.4v-91.3c0-15.7,12.7-28.4,28.4-28.4h9.4
			c15.7,0,28.4,12.7,28.4,28.4v91.3C239,288.5,226.3,301.2,210.6,301.2z"/>
	</g>
	<g>
		<circle class="st1" cx="319.9" cy="96.7" r="34.3"/>
		<path class="st1" d="M322.8,301.2l-9.4-0.1c-15.7-0.1-28.3-13-28.2-28.7l0.8-91.3c0.1-15.7,13-28.3,28.7-28.2l9.4,0.1
			c15.7,0.1,28.3,13,28.2,28.7l-0.8,91.3C351.3,288.8,338.5,301.4,322.8,301.2z"/>
	</g>
</g>
</svg>
